<svg width="375" height="373" viewBox="0 0 375 373" fill="none" xmlns="http://www.w3.org/2000/svg">
<path fill-rule="evenodd" clip-rule="evenodd" d="M162 1.547C140.234 4.593 108.49 15.252 94.275 24.288C90.549 26.656 84.8 30.091 81.5 31.92C67.478 39.691 59.206 47.158 45.17 64.712C18.721 97.791 4.01501 132.565 1.09101 168.946C0.118006 181.051 1.197 208.681 3.026 218.5C5.124 229.762 9.153 244.471 12.547 253.26C36.951 316.449 92.974 361.437 159.743 371.462C173.147 373.475 200.782 373.481 214.257 371.475C259.211 364.782 298.87 342.65 332.364 305.565C343.773 292.933 349.098 284.551 355.175 269.661C370.3 232.6 374.836 210.783 373.714 180.5C371.887 131.201 353.844 89.797 319.018 54.989C290.381 26.367 257.026 9.013 218 2.432C204.56 0.165997 175.191 -0.298005 162 1.547Z" fill="white"/>
<path fill-rule="evenodd" clip-rule="evenodd" d="M162 1.547C141.611 4.4 113.459 13.538 97.413 22.511C92.112 25.476 91.025 26.503 91.523 28.073C91.859 29.132 95.519 37.311 99.656 46.249C129.033 109.722 136.217 126.479 140.448 141.401C144.107 154.308 145.034 156.546 146.829 156.815C148.429 157.055 149.082 156.46 149.569 154.315C151.374 146.372 153.407 138.81 155.688 131.555C157.752 124.991 181.442 71.668 200.918 29.75L204.983 21H235.939H266.894L259.069 37.25C254.766 46.188 246.465 63.344 240.622 75.375C234.78 87.406 230 97.419 230 97.625C230 97.831 237.415 98 246.477 98H262.955L263.227 179.75C263.529 270.321 263.156 265.508 270.157 269.08C273.678 270.876 276.437 271 312.96 271C349.037 271 352 271.129 352 272.7C352 275.596 353.566 272.958 357.825 262.888C369.95 234.217 374.777 209.191 373.714 180.5C371.887 131.201 353.844 89.797 319.018 54.989C290.381 26.367 257.026 9.013 218 2.432C204.56 0.165997 175.191 -0.298005 162 1.547ZM41.737 69.202C34.641 77.558 24.453 93.803 18.56 106.161C4.344 135.968 -0.750999 162.197 1.051 196.296C2.218 218.372 5.661 235.429 12.547 253.26C36.951 316.449 92.974 361.437 159.743 371.462C173.147 373.475 200.782 373.481 214.257 371.475C247.665 366.501 278.273 353.017 305.107 331.454C312.951 325.151 329 310.096 329 309.041C329 308.634 312.688 308.516 292.75 308.78C267.335 309.117 254.837 308.913 250.935 308.098C244.96 306.849 234.816 302.265 231.412 299.276C226.702 295.138 221.919 287.536 220.032 281.185C217.321 272.065 217.061 264.355 216.936 189.5L216.827 124.5L196.913 164.843L177 205.186V250.593V296H146.5H116V250.539V205.079L81.413 134.789C62.39 96.13 46.693 64.366 46.531 64.202C46.369 64.038 44.212 66.288 41.737 69.202Z" fill="#D9D9D9"/>
<path fill-rule="evenodd" clip-rule="evenodd" d="M162 1.547C141.636 4.397 113.459 13.538 97.457 22.487C93.906 24.473 91 26.238 91 26.409C91 26.789 101.303 49.479 106.479 60.5C130.693 112.054 138.793 131.762 143.267 150C144.309 154.249 145.086 155.569 146.683 155.803C148.516 156.072 149.007 155.053 151.024 146.803C152.275 141.686 154.353 134.231 155.643 130.237C157.733 123.766 184.172 64.752 199.543 32.25L205.337 20H236.168C253.126 20 267 20.363 267 20.806C267 21.249 258.724 38.687 248.61 59.556L230.219 97.5L247.11 97.774L264 98.047V179.876V261.704L266.25 265.021C270.062 270.64 271.673 270.84 313.677 270.924C349.157 270.995 351.877 271.123 352.189 272.744C352.374 273.704 354.624 269.766 357.189 263.994C369.607 236.054 374.8 209.815 373.714 180.5C371.887 131.201 353.844 89.797 319.018 54.989C290.381 26.367 257.026 9.013 218 2.432C204.56 0.165997 175.191 -0.298005 162 1.547ZM41.762 69.174C34.643 77.555 24.461 93.787 18.56 106.161C4.344 135.968 -0.750999 162.197 1.051 196.296C2.218 218.372 5.661 235.429 12.547 253.26C36.951 316.449 92.974 361.437 159.743 371.462C173.147 373.475 200.782 373.481 214.257 371.475C251.4 365.945 284.466 350.147 314 323.821C319.225 319.164 324.805 313.64 326.4 311.547L329.3 307.741L318.9 308.375C313.18 308.723 295.9 309.089 280.5 309.188C254.097 309.358 252.121 309.243 245.848 307.174C233.043 302.951 224.339 294.713 219.779 282.5C217.55 276.53 217.536 276.126 217.019 200.902L216.5 125.304L196.75 165.729L177 206.154V251.577V297H146.5H116V251.345V205.689L84.83 142.595C67.687 107.893 52.001 75.978 49.973 71.674L46.285 63.847L41.762 69.174Z" fill="#B7B7B7"/>
<path fill-rule="evenodd" clip-rule="evenodd" d="M162 1.547C142.909 4.218 122.342 10.547 103.5 19.548C89.126 26.414 89.554 23.69 99.504 45.027C132.422 115.614 138.013 129.036 143.964 151.75C145.446 157.409 148.459 157.698 149.476 152.278C152.198 137.765 157.889 122.971 176.4 82.286C187.107 58.754 197.225 36.726 198.884 33.336C200.544 29.945 202.576 25.558 203.4 23.586L204.898 20H235.949C253.027 20 267 20.387 267 20.86C267 21.333 262.999 29.995 258.109 40.11C253.22 50.224 244.927 67.387 239.682 78.25L230.146 98H247.073H264V179.032C264 267.427 263.867 265.337 269.671 268.322C271.927 269.481 280.504 269.925 312 270.512C338.803 271.011 351.723 271.599 352.195 272.343C353.11 273.787 360.052 258.588 364.367 245.69C371.606 224.056 374.564 203.431 373.714 180.5C371.887 131.201 353.844 89.797 319.018 54.989C290.381 26.367 257.026 9.013 218 2.432C204.56 0.165997 175.191 -0.298005 162 1.547ZM41.223 69.75C34.443 77.876 24.205 94.323 18.56 106.161C4.344 135.968 -0.750999 162.197 1.051 196.296C2.218 218.372 5.661 235.429 12.547 253.26C36.951 316.449 92.974 361.437 159.743 371.462C173.147 373.475 200.782 373.481 214.257 371.475C250.869 366.024 283.866 350.411 313.041 324.733C317.739 320.599 323.325 315.089 325.455 312.49L329.327 307.764L322.414 308.384C318.611 308.725 300.875 309.062 283 309.133C253.333 309.25 250.063 309.095 245.487 307.364C230.369 301.645 222.395 293.032 218.577 278.296C217.215 273.04 216.988 262.214 216.914 198.856L216.829 125.5L197.332 165L177.835 204.5L177.958 250.75L178.08 297H147.069H116.058L115.779 250.75L115.5 204.5L81.043 134.75C62.091 96.387 46.271 65 45.886 65C45.501 65 43.403 67.137 41.223 69.75Z" fill="#A5A5A5"/>
<path fill-rule="evenodd" clip-rule="evenodd" d="M162 1.547C150.205 3.198 129.447 8.57 119.254 12.61C115.539 14.083 107.669 17.699 101.763 20.645L91.027 26.003L93.371 31.252C107.136 62.071 107.063 61.937 109.092 59.908C112.255 56.745 132.873 47.325 143.53 44.174C157.25 40.117 171.547 38 185.227 38H196.715L200.838 29L204.961 20H236.414H267.867L260.09 36.25L252.314 52.5L259.407 56.347C273.331 63.898 288.634 76.155 298.601 87.742C322.466 115.484 334.546 146.138 335.743 182C336.056 191.351 335.794 200.999 335.084 206.319C332.534 225.425 325.462 245.992 315.933 262.014C313.214 266.584 311.116 270.45 311.27 270.604C311.425 270.758 321.088 271.023 332.744 271.192L353.937 271.5L357.887 262.5C369.656 235.686 374.776 209.158 373.714 180.5C371.887 131.201 353.844 89.797 319.018 54.989C290.381 26.367 257.026 9.013 218 2.432C204.56 0.165997 175.191 -0.298005 162 1.547ZM41.223 69.75C34.443 77.876 24.205 94.323 18.56 106.161C4.344 135.968 -0.750999 162.197 1.051 196.296C2.218 218.372 5.661 235.429 12.547 253.26C36.951 316.449 92.974 361.437 159.743 371.462C173.147 373.475 200.782 373.481 214.257 371.475C250.063 366.144 281.972 351.327 310.887 326.606C315.322 322.814 321.299 317.012 324.168 313.713L329.385 307.715L324.943 308.318C322.499 308.649 309.475 309.216 296 309.577L271.5 310.233L266 313.506C250.513 322.724 233.037 329.646 216.5 333.115C200.637 336.442 173.363 336.442 157.5 333.115C98.407 320.721 52.693 274.843 40.906 216.102C38.311 203.175 37.381 180.958 38.921 168.724C40.543 155.836 44.917 139.545 49.789 128.244C53.85 118.824 60.81 106.333 63.493 103.65C64.802 102.341 63.902 100.002 55.775 83.584C50.715 73.363 46.262 65 45.88 65C45.499 65 43.403 67.137 41.223 69.75Z" fill="#8D8D8D"/>
<path fill-rule="evenodd" clip-rule="evenodd" d="M162 1.547C150.205 3.198 129.447 8.57 119.254 12.61C115.539 14.083 107.669 17.699 101.763 20.645L91.027 26.003L93.401 31.252C94.707 34.138 98.167 41.787 101.09 48.25C104.013 54.713 106.757 60 107.188 60C107.618 60 110.2 58.628 112.925 56.951C120.447 52.323 135.159 46.229 146.411 43.081C159.452 39.432 171.744 37.717 185.705 37.596L196.91 37.5L200.897 28.75L204.884 20H236.387H267.89L265.484 25.441C264.16 28.434 260.81 35.401 258.039 40.923C255.267 46.445 253.01 51.309 253.023 51.732C253.036 52.154 256.277 54.3 260.226 56.5C282.037 68.652 302.064 88.181 315.362 110.264C337.428 146.907 342.531 193.397 328.966 234.196C326.107 242.794 319.056 257.783 314.402 265.155C313.081 267.248 312 269.402 312 269.942C312 270.543 320.119 271.035 332.968 271.211L353.937 271.5L357.878 262.5C376.667 219.599 379.122 172.679 364.864 129C347.846 76.866 309.064 35.066 258 13.819C247.208 9.329 230.22 4.493 218 2.432C204.56 0.165997 175.191 -0.298005 162 1.547ZM41.223 69.75C34.443 77.876 24.205 94.323 18.56 106.161C4.344 135.968 -0.750999 162.197 1.051 196.296C2.218 218.372 5.661 235.429 12.547 253.26C36.951 316.449 92.974 361.437 159.743 371.462C173.147 373.475 200.782 373.481 214.257 371.475C226.791 369.609 244.417 365.005 254.774 360.892C280.358 350.733 306.869 332.724 323.683 314.082C328.574 308.66 329.086 307.759 326.985 308.271C325.618 308.604 312.6 309.198 298.056 309.591L271.612 310.306L263.556 315.157C246.587 325.376 224.8 332.825 205.079 335.151C190.704 336.847 167.006 335.668 153.761 332.598C123.094 325.491 94.257 308.183 74.5 285.025C55.788 263.092 44.592 239.347 39.833 211.5C37.18 195.982 37.661 168.472 40.821 155C44.726 138.348 53.376 117.615 61.13 106.32C62.709 104.021 64 101.854 64 101.505C64 100.114 46.613 65 45.925 65C45.518 65 43.403 67.137 41.223 69.75Z" fill="#737373"/>
<path fill-rule="evenodd" clip-rule="evenodd" d="M170 0.666002C145.942 3.271 126.211 8.867 104.857 19.145C97.786 22.548 92 25.883 92 26.556C92 27.739 105.078 57.633 106.535 59.779C106.639 59.932 111.849 57.37 118.112 54.086C138.226 43.537 158.19 38.315 182.789 37.167L197.078 36.5L200.789 28.278L204.5 20.055L236.225 20.028L267.95 20L267.055 22.354C266.563 23.649 263.199 30.618 259.58 37.84C255.961 45.062 253 51.147 253 51.363C253 51.578 257.316 54.329 262.592 57.477C293.76 76.077 317.174 104.696 328.585 138.14C343.217 181.026 338.127 227.222 314.531 265.686L311.963 269.872L316.688 270.58C319.287 270.97 328.479 270.987 337.114 270.618C348.695 270.123 352.917 270.252 353.204 271.112C353.418 271.753 355.444 268.052 357.706 262.889C369.523 235.921 374.267 212.069 373.497 183.5C373.089 168.349 372.853 165.356 371.406 157C371.073 155.075 370.661 152.6 370.49 151.5C370.148 149.286 369.393 145.686 368.551 142.25C368.248 141.013 367.814 139.168 367.587 138.151C366.676 134.081 361.611 120.135 358.889 114.205C357.3 110.743 356 107.462 356 106.915C356 105.471 352.512 98.858 349.022 93.687C347.36 91.225 346 88.713 346 88.105C346 87.497 345.605 87 345.121 87C344.638 87 343.683 85.65 343 84C342.317 82.35 341.362 81 340.879 81C340.395 81 340 80.325 340 79.5C340 78.675 339.663 77.997 339.25 77.993C338.837 77.989 337.375 76.308 336 74.257C334.625 72.206 332.6 69.41 331.5 68.044C327.97 63.659 309.619 45.51 306 42.824C304.075 41.396 301.419 39.276 300.097 38.113C298.775 36.951 297.425 35.999 297.097 35.999C296.769 35.998 295.165 34.85 293.534 33.447C287.906 28.607 276.561 22.248 261.5 15.493C259.85 14.753 256.925 13.442 255 12.58C253.075 11.718 249.025 10.317 246 9.46601C242.975 8.61401 238.925 7.474 237 6.93C228.246 4.459 223.227 3.374 216 2.391C213.525 2.054 210.6 1.565 209.5 1.305C206.914 0.694002 174.578 0.170002 170 0.666002ZM41.386 69.657C23.213 91.2 7.36601 126.424 2.54001 156C0.186006 170.434 0.0170015 192.385 2.118 211C3.243 220.969 8.717 244.337 11.28 250.117C12.106 251.977 13.496 255.399 14.371 257.721C17.67 266.48 28.176 285.51 34.953 295.003C42.939 306.188 60.171 324.607 68.745 331.122C71.91 333.527 74.725 335.775 75 336.117C77.085 338.714 94.83 349.45 105.5 354.571C122.094 362.536 139.904 368.423 153.5 370.439C155.7 370.765 159.975 371.453 163 371.968C168.581 372.919 208.833 372.751 212.5 371.761C213.6 371.465 216.75 370.93 219.5 370.574C227.556 369.53 246.81 364.125 256 360.328C282.073 349.556 306.658 332.822 323.068 314.677L328.333 308.855L300.417 309.563L272.5 310.272L264.499 314.971C243.376 327.376 224.161 333.588 199.25 336.065C184.751 337.507 168.514 336.269 152.461 332.499C126.263 326.347 101.697 312.673 82.422 293.516C70.836 282.001 64.662 274.175 57.925 262.467C29.642 213.316 30.484 154.353 60.138 107.399L64.03 101.236L55.595 83.726C50.956 74.096 46.735 65.954 46.216 65.634C45.697 65.313 43.524 67.124 41.386 69.657Z" fill="#535353"/>
</svg>
