<svg width="408" height="31" viewBox="0 0 408 31" fill="none" xmlns="http://www.w3.org/2000/svg">
    <path d="M59.613 14.264H56.797V27H50.493V14.264H48.541V9.048H50.493V8.888C50.493 6.584 51.165 4.824 52.509 3.608C53.8743 2.37067 55.8263 1.752 58.365 1.752C58.877 1.752 59.2717 1.76267 59.549 1.784V7.128C59.3783 7.10667 59.1437 7.096 58.845 7.096C58.1623 7.096 57.661 7.256 57.341 7.576C57.021 7.87466 56.8397 8.36533 56.797 9.048H59.613V14.264ZM68.1265 12.216C68.8305 11.192 69.6838 10.3813 70.6865 9.784C71.6892 9.18667 72.7665 8.888 73.9185 8.888V15.576H72.1585C70.7932 15.576 69.7798 15.8427 69.1185 16.376C68.4572 16.9093 68.1265 17.8373 68.1265 19.16V27H61.8545V9.048H68.1265V12.216ZM75.143 18.008C75.143 16.152 75.4737 14.5307 76.135 13.144C76.8177 11.7573 77.735 10.6907 78.887 9.944C80.0603 9.19733 81.3617 8.824 82.791 8.824C84.0283 8.824 85.095 9.06933 85.991 9.56C86.887 10.0507 87.5803 10.712 88.071 11.544V9.048H94.343V27H88.071V24.504C87.5803 25.336 86.8763 25.9973 85.959 26.488C85.063 26.9787 84.007 27.224 82.791 27.224C81.3617 27.224 80.0603 26.8507 78.887 26.104C77.735 25.3573 76.8177 24.2907 76.135 22.904C75.4737 21.496 75.143 19.864 75.143 18.008ZM88.071 18.008C88.071 16.856 87.751 15.9493 87.111 15.288C86.4923 14.6267 85.7243 14.296 84.807 14.296C83.8683 14.296 83.0897 14.6267 82.471 15.288C81.8523 15.928 81.543 16.8347 81.543 18.008C81.543 19.16 81.8523 20.0773 82.471 20.76C83.0897 21.4213 83.8683 21.752 84.807 21.752C85.7243 21.752 86.4923 21.4213 87.111 20.76C87.751 20.0987 88.071 19.1813 88.071 18.008ZM109.661 8.888C111.73 8.888 113.373 9.58133 114.589 10.968C115.805 12.3333 116.413 14.1893 116.413 16.536V27H110.141V17.368C110.141 16.344 109.874 15.544 109.341 14.968C108.808 14.3707 108.093 14.072 107.197 14.072C106.258 14.072 105.522 14.3707 104.989 14.968C104.456 15.544 104.189 16.344 104.189 17.368V27H97.917V9.048H104.189V11.608C104.744 10.7973 105.49 10.1467 106.429 9.656C107.368 9.144 108.445 8.888 109.661 8.888ZM118.831 18.008C118.831 16.152 119.215 14.5307 119.983 13.144C120.751 11.7573 121.817 10.6907 123.183 9.944C124.569 9.19733 126.148 8.824 127.919 8.824C130.201 8.824 132.121 9.45333 133.679 10.712C135.236 11.9493 136.239 13.688 136.687 15.928H130.031C129.647 14.7547 128.9 14.168 127.791 14.168C127.001 14.168 126.372 14.4987 125.903 15.16C125.455 15.8 125.231 16.7493 125.231 18.008C125.231 19.2667 125.455 20.2267 125.903 20.888C126.372 21.5493 127.001 21.88 127.791 21.88C128.921 21.88 129.668 21.2933 130.031 20.12H136.687C136.239 22.3387 135.236 24.0773 133.679 25.336C132.121 26.5947 130.201 27.224 127.919 27.224C126.148 27.224 124.569 26.8507 123.183 26.104C121.817 25.3573 120.751 24.2907 119.983 22.904C119.215 21.5173 118.831 19.8853 118.831 18.008ZM142.46 7.384C141.351 7.384 140.455 7.08533 139.772 6.488C139.111 5.86933 138.78 5.10133 138.78 4.184C138.78 3.24533 139.111 2.46667 139.772 1.848C140.455 1.22933 141.351 0.919998 142.46 0.919998C143.548 0.919998 144.423 1.22933 145.084 1.848C145.767 2.46667 146.108 3.24533 146.108 4.184C146.108 5.10133 145.767 5.86933 145.084 6.488C144.423 7.08533 143.548 7.384 142.46 7.384ZM145.564 9.048V27H139.292V9.048H145.564ZM156.784 27.224C155.162 27.224 153.712 26.9573 152.432 26.424C151.173 25.8693 150.17 25.1227 149.424 24.184C148.698 23.224 148.293 22.1467 148.208 20.952H154.288C154.373 21.528 154.64 21.976 155.088 22.296C155.536 22.616 156.09 22.776 156.752 22.776C157.264 22.776 157.669 22.6693 157.968 22.456C158.266 22.2427 158.416 21.9653 158.416 21.624C158.416 21.176 158.17 20.8453 157.68 20.632C157.189 20.4187 156.378 20.184 155.248 19.928C153.968 19.672 152.901 19.384 152.048 19.064C151.194 18.744 150.448 18.2213 149.808 17.496C149.189 16.7707 148.88 15.7893 148.88 14.552C148.88 13.4853 149.168 12.5253 149.744 11.672C150.32 10.7973 151.162 10.104 152.272 9.592C153.402 9.08 154.757 8.824 156.336 8.824C158.682 8.824 160.528 9.4 161.872 10.552C163.216 11.704 163.994 13.2187 164.208 15.096H158.544C158.437 14.52 158.181 14.0827 157.776 13.784C157.392 13.464 156.869 13.304 156.208 13.304C155.696 13.304 155.301 13.4 155.024 13.592C154.768 13.784 154.64 14.0507 154.64 14.392C154.64 14.8187 154.885 15.1493 155.376 15.384C155.866 15.5973 156.656 15.8213 157.744 16.056C159.045 16.3333 160.122 16.6427 160.976 16.984C161.85 17.3253 162.608 17.88 163.248 18.648C163.909 19.3947 164.24 20.4187 164.24 21.72C164.24 22.7653 163.93 23.704 163.312 24.536C162.714 25.368 161.85 26.0293 160.72 26.52C159.61 26.9893 158.298 27.224 156.784 27.224ZM166.299 18.008C166.299 16.152 166.683 14.5307 167.451 13.144C168.219 11.7573 169.286 10.6907 170.651 9.944C172.038 9.19733 173.617 8.824 175.387 8.824C177.67 8.824 179.59 9.45333 181.147 10.712C182.705 11.9493 183.707 13.688 184.155 15.928H177.499C177.115 14.7547 176.369 14.168 175.259 14.168C174.47 14.168 173.841 14.4987 173.371 15.16C172.923 15.8 172.699 16.7493 172.699 18.008C172.699 19.2667 172.923 20.2267 173.371 20.888C173.841 21.5493 174.47 21.88 175.259 21.88C176.39 21.88 177.137 21.2933 177.499 20.12H184.155C183.707 22.3387 182.705 24.0773 181.147 25.336C179.59 26.5947 177.67 27.224 175.387 27.224C173.617 27.224 172.038 26.8507 170.651 26.104C169.286 25.3573 168.219 24.2907 167.451 22.904C166.683 21.5173 166.299 19.8853 166.299 18.008ZM195.113 27.224C193.321 27.224 191.71 26.8507 190.281 26.104C188.873 25.3573 187.763 24.2907 186.953 22.904C186.142 21.5173 185.737 19.8853 185.737 18.008C185.737 16.152 186.142 14.5307 186.953 13.144C187.785 11.7573 188.905 10.6907 190.313 9.944C191.742 9.19733 193.353 8.824 195.145 8.824C196.937 8.824 198.537 9.19733 199.945 9.944C201.374 10.6907 202.494 11.7573 203.305 13.144C204.137 14.5307 204.553 16.152 204.553 18.008C204.553 19.864 204.137 21.496 203.305 22.904C202.494 24.2907 201.374 25.3573 199.945 26.104C198.515 26.8507 196.905 27.224 195.113 27.224ZM195.113 21.784C195.987 21.784 196.713 21.464 197.289 20.824C197.886 20.1627 198.185 19.224 198.185 18.008C198.185 16.792 197.886 15.864 197.289 15.224C196.713 14.584 195.998 14.264 195.145 14.264C194.291 14.264 193.577 14.584 193.001 15.224C192.425 15.864 192.137 16.792 192.137 18.008C192.137 19.2453 192.414 20.184 192.969 20.824C193.523 21.464 194.238 21.784 195.113 21.784ZM227.617 4.44L219.681 19.832V27H213.377V19.832L205.441 4.44H212.609L216.577 13.144L220.545 4.44H227.617ZM235.814 3.32V27H229.542V3.32H235.814ZM238.362 18.008C238.362 16.152 238.692 14.5307 239.354 13.144C240.036 11.7573 240.964 10.6907 242.138 9.944C243.311 9.19733 244.612 8.824 246.042 8.824C247.194 8.824 248.218 9.06933 249.114 9.56C250.031 10.0293 250.746 10.68 251.258 11.512V3.32H257.562V27H251.258V24.504C250.767 25.336 250.074 25.9973 249.178 26.488C248.282 26.9787 247.226 27.224 246.01 27.224C244.58 27.224 243.279 26.8507 242.106 26.104C240.954 25.3573 240.036 24.2907 239.354 22.904C238.692 21.496 238.362 19.864 238.362 18.008ZM251.29 18.008C251.29 16.856 250.97 15.9493 250.33 15.288C249.711 14.6267 248.943 14.296 248.026 14.296C247.087 14.296 246.308 14.6267 245.69 15.288C245.071 15.928 244.762 16.8347 244.762 18.008C244.762 19.16 245.071 20.0773 245.69 20.76C246.308 21.4213 247.087 21.752 248.026 21.752C248.943 21.752 249.711 21.4213 250.33 20.76C250.97 20.0987 251.29 19.1813 251.29 18.008ZM278.288 17.816C278.288 18.3067 278.256 18.7973 278.192 19.288H266.32C266.384 20.2693 266.65 21.0053 267.12 21.496C267.61 21.9653 268.229 22.2 268.976 22.2C270.021 22.2 270.768 21.7307 271.216 20.792H277.904C277.626 22.0293 277.082 23.1387 276.272 24.12C275.482 25.08 274.48 25.8373 273.264 26.392C272.048 26.9467 270.704 27.224 269.232 27.224C267.461 27.224 265.882 26.8507 264.496 26.104C263.13 25.3573 262.053 24.2907 261.264 22.904C260.496 21.5173 260.112 19.8853 260.112 18.008C260.112 16.1307 260.496 14.5093 261.264 13.144C262.032 11.7573 263.098 10.6907 264.464 9.944C265.85 9.19733 267.44 8.824 269.232 8.824C271.002 8.824 272.57 9.18667 273.936 9.912C275.301 10.6373 276.368 11.6827 277.136 13.048C277.904 14.392 278.288 15.9813 278.288 17.816ZM271.888 16.248C271.888 15.48 271.632 14.8827 271.12 14.456C270.608 14.008 269.968 13.784 269.2 13.784C268.432 13.784 267.802 13.9973 267.312 14.424C266.821 14.8293 266.501 15.4373 266.352 16.248H271.888ZM287.127 12.216C287.831 11.192 288.684 10.3813 289.687 9.784C290.689 9.18667 291.767 8.888 292.919 8.888V15.576H291.159C289.793 15.576 288.78 15.8427 288.119 16.376C287.457 16.9093 287.127 17.8373 287.127 19.16V27H280.855V9.048H287.127V12.216ZM301.439 3.32V27H295.167V3.32H301.439ZM303.987 18.008C303.987 16.152 304.317 14.5307 304.979 13.144C305.661 11.7573 306.579 10.6907 307.731 9.944C308.904 9.19733 310.205 8.824 311.635 8.824C312.872 8.824 313.939 9.06933 314.835 9.56C315.731 10.0507 316.424 10.712 316.915 11.544V9.048H323.187V27H316.915V24.504C316.424 25.336 315.72 25.9973 314.803 26.488C313.907 26.9787 312.851 27.224 311.635 27.224C310.205 27.224 308.904 26.8507 307.731 26.104C306.579 25.3573 305.661 24.2907 304.979 22.904C304.317 21.496 303.987 19.864 303.987 18.008ZM316.915 18.008C316.915 16.856 316.595 15.9493 315.955 15.288C315.336 14.6267 314.568 14.296 313.651 14.296C312.712 14.296 311.933 14.6267 311.315 15.288C310.696 15.928 310.387 16.8347 310.387 18.008C310.387 19.16 310.696 20.0773 311.315 20.76C311.933 21.4213 312.712 21.752 313.651 21.752C314.568 21.752 315.336 21.4213 315.955 20.76C316.595 20.0987 316.915 19.1813 316.915 18.008ZM338.505 8.888C340.574 8.888 342.217 9.58133 343.433 10.968C344.649 12.3333 345.257 14.1893 345.257 16.536V27H338.985V17.368C338.985 16.344 338.718 15.544 338.185 14.968C337.651 14.3707 336.937 14.072 336.041 14.072C335.102 14.072 334.366 14.3707 333.833 14.968C333.299 15.544 333.033 16.344 333.033 17.368V27H326.761V9.048H333.033V11.608C333.587 10.7973 334.334 10.1467 335.273 9.656C336.211 9.144 337.289 8.888 338.505 8.888Z" fill="#3E83DE"/>
    <path d="M355.75 19.9773V15.25L372.205 8.34091V13.5114L361.341 17.5682L361.511 17.3182V17.9205L361.341 17.6591L372.205 21.7273V26.8864L355.75 19.9773ZM387.503 2.63636L380.003 30.5H375.264L382.764 2.63636H387.503ZM407.017 19.9773L390.562 26.8864V21.7273L401.426 17.6591L401.267 17.9205V17.3182L401.426 17.5682L390.562 13.5114V8.34091L407.017 15.25V19.9773Z" fill="#3E83DE"/>
    <path d="M0.75 19.9773V15.25L17.2045 8.34091V13.5114L6.34091 17.5682L6.51136 17.3182V17.9205L6.34091 17.6591L17.2045 21.7273V26.8864L0.75 19.9773ZM39.1733 19.9773L22.7188 26.8864V21.7273L33.5824 17.6591L33.4233 17.9205V17.3182L33.5824 17.5682L22.7188 13.5114V8.34091L39.1733 15.25V19.9773Z" fill="#3E83DE"/>
</svg>
